<svg width="1237" height="229" viewBox="0 0 1237 229" fill="none" xmlns="http://www.w3.org/2000/svg">
<path d="M31.25 177C41.6053 177 50 168.605 50 158.25V112.983V52H12.5V158.25C12.5 168.605 20.8947 177 31.25 177Z" fill="#2F88FF"/>
<path d="M44.5068 171.508L137.452 78.5625L110.89 52L49.9984 112.983" fill="#79B2FF"/>
<path d="M76.5166 139.5H133.5C135.709 139.5 137.5 141.291 137.5 143.5V173C137.5 175.209 135.709 177 133.5 177H39.0625" fill="#A7CDFF"/>
<path d="M276.232 95.092C276.232 100.468 274.936 105.508 272.344 110.212C269.848 114.916 265.864 118.708 260.392 121.588C255.016 124.468 248.2 125.908 239.944 125.908H223.096V164.5H202.936V63.988H239.944C247.72 63.988 254.344 65.332 259.816 68.02C265.288 70.708 269.368 74.404 272.056 79.108C274.84 83.812 276.232 89.14 276.232 95.092ZM239.08 109.636C244.648 109.636 248.776 108.388 251.464 105.892C254.152 103.3 255.496 99.7 255.496 95.092C255.496 85.3 250.024 80.404 239.08 80.404H223.096V109.636H239.08ZM364.705 122.884C364.705 125.764 364.513 128.356 364.129 130.66H305.809C306.289 136.42 308.305 140.932 311.857 144.196C315.409 147.46 319.777 149.092 324.961 149.092C332.449 149.092 337.777 145.876 340.945 139.444H362.689C360.385 147.124 355.969 153.46 349.441 158.452C342.913 163.348 334.897 165.796 325.393 165.796C317.713 165.796 310.801 164.116 304.657 160.756C298.609 157.3 293.857 152.452 290.401 146.212C287.041 139.972 285.361 132.772 285.361 124.612C285.361 116.356 287.041 109.108 290.401 102.868C293.761 96.628 298.465 91.828 304.513 88.468C310.561 85.108 317.521 83.428 325.393 83.428C332.977 83.428 339.745 85.06 345.697 88.324C351.745 91.588 356.401 96.244 359.665 102.292C363.025 108.244 364.705 115.108 364.705 122.884ZM343.825 117.124C343.729 111.94 341.857 107.812 338.209 104.74C334.561 101.572 330.097 99.988 324.817 99.988C319.825 99.988 315.601 101.524 312.145 104.596C308.785 107.572 306.721 111.748 305.953 117.124H343.825ZM399.58 96.388C402.172 92.548 405.724 89.428 410.236 87.028C414.844 84.628 420.076 83.428 425.932 83.428C432.748 83.428 438.892 85.108 444.364 88.468C449.932 91.828 454.3 96.628 457.468 102.868C460.732 109.012 462.364 116.164 462.364 124.324C462.364 132.484 460.732 139.732 457.468 146.068C454.3 152.308 449.932 157.156 444.364 160.612C438.892 164.068 432.748 165.796 425.932 165.796C419.98 165.796 414.748 164.644 410.236 162.34C405.82 159.94 402.268 156.868 399.58 153.124V164.5H379.42V57.94H399.58V96.388ZM441.772 124.324C441.772 119.524 440.764 115.396 438.748 111.94C436.828 108.388 434.236 105.7 430.972 103.876C427.804 102.052 424.348 101.14 420.604 101.14C416.956 101.14 413.5 102.1 410.236 104.02C407.068 105.844 404.476 108.532 402.46 112.084C400.54 115.636 399.58 119.812 399.58 124.612C399.58 129.412 400.54 133.588 402.46 137.14C404.476 140.692 407.068 143.428 410.236 145.348C413.5 147.172 416.956 148.084 420.604 148.084C424.348 148.084 427.804 147.124 430.972 145.204C434.236 143.284 436.828 140.548 438.748 136.996C440.764 133.444 441.772 129.22 441.772 124.324ZM497.174 96.388C499.766 92.548 503.318 89.428 507.83 87.028C512.438 84.628 517.67 83.428 523.526 83.428C530.342 83.428 536.486 85.108 541.958 88.468C547.526 91.828 551.894 96.628 555.062 102.868C558.326 109.012 559.958 116.164 559.958 124.324C559.958 132.484 558.326 139.732 555.062 146.068C551.894 152.308 547.526 157.156 541.958 160.612C536.486 164.068 530.342 165.796 523.526 165.796C517.574 165.796 512.342 164.644 507.83 162.34C503.414 159.94 499.862 156.868 497.174 153.124V164.5H477.014V57.94H497.174V96.388ZM539.366 124.324C539.366 119.524 538.358 115.396 536.342 111.94C534.422 108.388 531.83 105.7 528.566 103.876C525.398 102.052 521.942 101.14 518.198 101.14C514.55 101.14 511.094 102.1 507.83 104.02C504.662 105.844 502.07 108.532 500.054 112.084C498.134 115.636 497.174 119.812 497.174 124.612C497.174 129.412 498.134 133.588 500.054 137.14C502.07 140.692 504.662 143.428 507.83 145.348C511.094 147.172 514.55 148.084 518.198 148.084C521.942 148.084 525.398 147.124 528.566 145.204C531.83 143.284 534.422 140.548 536.342 136.996C538.358 133.444 539.366 129.22 539.366 124.324ZM594.768 57.94V164.5H574.608V57.94H594.768ZM688.846 122.884C688.846 125.764 688.654 128.356 688.27 130.66H629.95C630.43 136.42 632.446 140.932 635.998 144.196C639.55 147.46 643.918 149.092 649.102 149.092C656.59 149.092 661.918 145.876 665.086 139.444H686.83C684.526 147.124 680.11 153.46 673.582 158.452C667.054 163.348 659.038 165.796 649.534 165.796C641.854 165.796 634.942 164.116 628.798 160.756C622.75 157.3 617.998 152.452 614.542 146.212C611.182 139.972 609.502 132.772 609.502 124.612C609.502 116.356 611.182 109.108 614.542 102.868C617.902 96.628 622.606 91.828 628.654 88.468C634.702 85.108 641.662 83.428 649.534 83.428C657.118 83.428 663.886 85.06 669.838 88.324C675.886 91.588 680.542 96.244 683.806 102.292C687.166 108.244 688.846 115.108 688.846 122.884ZM667.966 117.124C667.87 111.94 665.998 107.812 662.35 104.74C658.702 101.572 654.238 99.988 648.958 99.988C643.966 99.988 639.742 101.524 636.286 104.596C632.926 107.572 630.862 111.748 630.094 117.124H667.966ZM732.978 114.1C732.978 104.212 735.186 95.38 739.602 87.604C744.114 79.732 750.21 73.636 757.89 69.316C765.666 64.9 774.354 62.692 783.954 62.692C795.186 62.692 805.026 65.572 813.474 71.332C821.922 77.092 827.826 85.06 831.186 95.236H808.002C805.698 90.436 802.434 86.836 798.21 84.436C794.082 82.036 789.282 80.836 783.81 80.836C777.954 80.836 772.722 82.228 768.114 85.012C763.602 87.7 760.05 91.54 757.458 96.532C754.962 101.524 753.714 107.38 753.714 114.1C753.714 120.724 754.962 126.58 757.458 131.668C760.05 136.66 763.602 140.548 768.114 143.332C772.722 146.02 777.954 147.364 783.81 147.364C789.282 147.364 794.082 146.164 798.21 143.764C802.434 141.268 805.698 137.62 808.002 132.82H831.186C827.826 143.092 821.922 151.108 813.474 156.868C805.122 162.532 795.282 165.364 783.954 165.364C774.354 165.364 765.666 163.204 757.89 158.884C750.21 154.468 744.114 148.372 739.602 140.596C735.186 132.82 732.978 123.988 732.978 114.1ZM883.829 165.796C876.149 165.796 869.237 164.116 863.093 160.756C856.949 157.3 852.101 152.452 848.549 146.212C845.093 139.972 843.365 132.772 843.365 124.612C843.365 116.452 845.141 109.252 848.693 103.012C852.341 96.772 857.285 91.972 863.525 88.612C869.765 85.156 876.725 83.428 884.405 83.428C892.085 83.428 899.045 85.156 905.285 88.612C911.525 91.972 916.421 96.772 919.973 103.012C923.621 109.252 925.445 116.452 925.445 124.612C925.445 132.772 923.573 139.972 919.829 146.212C916.181 152.452 911.189 157.3 904.853 160.756C898.613 164.116 891.605 165.796 883.829 165.796ZM883.829 148.228C887.477 148.228 890.885 147.364 894.053 145.636C897.317 143.812 899.909 141.124 901.829 137.572C903.749 134.02 904.709 129.7 904.709 124.612C904.709 117.028 902.693 111.22 898.661 107.188C894.725 103.06 889.877 100.996 884.117 100.996C878.357 100.996 873.509 103.06 869.573 107.188C865.733 111.22 863.813 117.028 863.813 124.612C863.813 132.196 865.685 138.052 869.429 142.18C873.269 146.212 878.069 148.228 883.829 148.228ZM960.393 57.94V164.5H940.233V57.94H960.393ZM1015.74 165.796C1008.06 165.796 1001.14 164.116 994.999 160.756C988.855 157.3 984.007 152.452 980.455 146.212C976.999 139.972 975.271 132.772 975.271 124.612C975.271 116.452 977.047 109.252 980.599 103.012C984.247 96.772 989.191 91.972 995.431 88.612C1001.67 85.156 1008.63 83.428 1016.31 83.428C1023.99 83.428 1030.95 85.156 1037.19 88.612C1043.43 91.972 1048.33 96.772 1051.88 103.012C1055.53 109.252 1057.35 116.452 1057.35 124.612C1057.35 132.772 1055.48 139.972 1051.73 146.212C1048.09 152.452 1043.1 157.3 1036.76 160.756C1030.52 164.116 1023.51 165.796 1015.74 165.796ZM1015.74 148.228C1019.38 148.228 1022.79 147.364 1025.96 145.636C1029.22 143.812 1031.82 141.124 1033.74 137.572C1035.66 134.02 1036.62 129.7 1036.62 124.612C1036.62 117.028 1034.6 111.22 1030.57 107.188C1026.63 103.06 1021.78 100.996 1016.02 100.996C1010.26 100.996 1005.42 103.06 1001.48 107.188C997.639 111.22 995.719 117.028 995.719 124.612C995.719 132.196 997.591 138.052 1001.34 142.18C1005.18 146.212 1009.98 148.228 1015.74 148.228ZM1092.3 97.108C1094.89 92.884 1098.25 89.572 1102.38 87.172C1106.6 84.772 1111.4 83.572 1116.78 83.572V104.74H1111.45C1105.12 104.74 1100.32 106.228 1097.05 109.204C1093.88 112.18 1092.3 117.364 1092.3 124.756V164.5H1072.14V84.724H1092.3V97.108ZM1160.89 165.796C1154.36 165.796 1148.5 164.644 1143.32 162.34C1138.13 159.94 1134.01 156.724 1130.93 152.692C1127.96 148.66 1126.33 144.196 1126.04 139.3H1146.34C1146.73 142.372 1148.21 144.916 1150.81 146.932C1153.49 148.948 1156.81 149.956 1160.74 149.956C1164.58 149.956 1167.56 149.188 1169.67 147.652C1171.88 146.116 1172.98 144.148 1172.98 141.748C1172.98 139.156 1171.64 137.236 1168.95 135.988C1166.36 134.644 1162.18 133.204 1156.42 131.668C1150.47 130.228 1145.57 128.74 1141.73 127.204C1137.99 125.668 1134.73 123.316 1131.94 120.148C1129.25 116.98 1127.91 112.708 1127.91 107.332C1127.91 102.916 1129.16 98.884 1131.65 95.236C1134.25 91.588 1137.89 88.708 1142.6 86.596C1147.4 84.484 1153.01 83.428 1159.45 83.428C1168.95 83.428 1176.53 85.828 1182.2 90.628C1187.86 95.332 1190.98 101.716 1191.56 109.78H1172.26C1171.97 106.612 1170.63 104.116 1168.23 102.292C1165.93 100.372 1162.81 99.412 1158.87 99.412C1155.22 99.412 1152.39 100.084 1150.37 101.428C1148.45 102.772 1147.49 104.644 1147.49 107.044C1147.49 109.732 1148.84 111.796 1151.53 113.236C1154.21 114.58 1158.39 115.972 1164.05 117.412C1169.81 118.852 1174.57 120.34 1178.31 121.876C1182.05 123.412 1185.27 125.812 1187.96 129.076C1190.74 132.244 1192.18 136.468 1192.28 141.748C1192.28 146.356 1190.98 150.484 1188.39 154.132C1185.89 157.78 1182.25 160.66 1177.45 162.772C1172.74 164.788 1167.22 165.796 1160.89 165.796Z" fill="#333333"/>
</svg>
